<?xml version="1.0" standalone="no"?>
<!DOCTYPE svg PUBLIC "-//W3C//DTD SVG 20010904//EN"
 "http://www.w3.org/TR/2001/REC-SVG-20010904/DTD/svg10.dtd">
<svg version="1.0" xmlns="http://www.w3.org/2000/svg"
 width="1080.000000pt" height="1080.000000pt" viewBox="0 0 1080.000000 1080.000000"
 preserveAspectRatio="xMidYMid meet">
<metadata>
Created by potrace 1.16, written by Peter Selinger 2001-2019
</metadata>
<g transform="translate(0.000000,1080.000000) scale(0.100000,-0.100000)"
fill="#000000" stroke="none">
<path d="M4615 8707 c-22 -12 -53 -31 -68 -41 -27 -18 -28 -18 -41 -1 -12 17
-14 17 -34 -3 -17 -17 -78 -42 -104 -42 -18 0 -158 -71 -158 -80 0 -6 -7 -10
-15 -10 -8 0 -15 -4 -15 -9 0 -17 -99 -60 -138 -62 -20 -1 -55 6 -77 14 l-40
15 -20 -32 c-11 -17 -32 -47 -46 -66 -15 -19 -35 -60 -45 -90 -11 -30 -25 -59
-31 -63 -7 -4 -13 -23 -13 -41 0 -27 -4 -32 -22 -32 -29 1 -39 -36 -42 -149
-2 -73 -5 -91 -18 -93 -9 -2 -19 6 -23 17 -3 11 -14 22 -24 26 -9 3 -22 17
-29 33 -10 23 -11 18 -6 -38 4 -49 14 -78 40 -124 38 -64 39 -100 4 -109 -11
-3 -20 -14 -20 -25 0 -15 -9 -21 -40 -26 -49 -8 -51 -22 -6 -41 19 -8 37 -24
41 -35 4 -13 18 -23 36 -27 38 -7 37 -18 -3 -38 -37 -17 -73 -83 -70 -125 4
-52 13 -70 31 -70 10 0 25 -7 32 -16 11 -14 10 -22 -11 -58 -34 -58 -44 -240
-38 -691 1 -55 0 -113 -1 -130 -5 -49 19 -358 29 -385 6 -14 12 -47 14 -73 2
-31 12 -60 27 -80 18 -25 23 -43 21 -85 -3 -60 -15 -92 -37 -92 -8 0 -15 -4
-15 -9 0 -17 31 -81 39 -81 5 0 8 -56 8 -124 0 -98 3 -129 16 -149 10 -16 17
-56 20 -118 7 -121 20 -212 41 -272 9 -26 16 -69 16 -96 0 -27 7 -65 15 -84 8
-20 15 -52 15 -71 0 -20 6 -50 14 -68 8 -18 22 -53 31 -78 26 -68 88 -195 97
-198 4 -2 8 -9 8 -16 0 -6 15 -34 33 -61 36 -56 67 -120 67 -137 0 -7 9 -30
20 -53 11 -23 27 -81 36 -131 8 -49 22 -101 30 -116 8 -14 14 -33 14 -42 0 -8
6 -30 14 -48 8 -18 22 -53 32 -78 10 -25 30 -65 44 -90 14 -25 34 -67 44 -95
10 -27 33 -72 51 -100 18 -27 43 -70 56 -95 13 -25 30 -49 37 -53 6 -4 12 -13
12 -18 0 -6 19 -31 43 -56 41 -44 43 -44 90 -38 30 3 47 2 47 -5 0 -14 37 -13
42 1 3 8 16 10 41 5 l38 -7 -22 -18 -22 -18 33 -12 c19 -6 43 -20 55 -30 44
-42 86 -47 313 -39 123 5 227 5 246 0 45 -13 223 -3 269 14 20 8 51 14 68 14
30 0 68 20 101 53 10 9 26 17 35 17 9 0 25 8 35 17 16 14 22 15 39 4 25 -15
37 -6 63 46 11 21 28 47 38 58 20 23 55 85 91 161 14 29 51 91 82 139 38 57
70 123 95 193 20 59 40 116 44 127 4 11 14 34 22 51 9 17 19 46 24 65 12 48
38 120 51 143 14 25 27 67 40 131 5 27 22 68 36 90 44 64 103 186 103 210 0
13 7 28 15 35 8 7 15 19 15 27 0 8 6 27 14 41 24 46 67 184 76 245 4 31 12 63
18 70 5 6 13 28 17 47 4 19 14 44 22 56 13 20 20 63 43 264 5 47 15 117 21
155 6 39 13 118 15 177 1 59 7 122 12 140 6 23 4 41 -5 58 -20 40 -17 169 6
206 36 59 39 155 22 654 -8 237 -14 324 -26 353 -8 20 -15 57 -15 81 0 24 -7
57 -15 72 -8 16 -15 36 -15 44 0 8 -7 24 -15 34 -8 11 -15 34 -15 52 0 18 -4
36 -10 39 -5 3 -20 27 -32 53 -22 45 -115 192 -129 202 -22 17 -30 58 -27 138
3 85 2 89 -40 174 -31 62 -53 93 -81 112 -20 14 -42 26 -48 26 -6 0 -16 7 -23
15 -7 8 -20 15 -30 15 -10 0 -23 7 -30 15 -7 8 -27 15 -44 15 -40 0 -76 35
-76 74 0 37 -78 115 -150 149 -8 4 -28 16 -45 27 -16 11 -41 25 -55 32 -14 7
-27 16 -31 20 -3 4 -27 11 -55 14 -27 4 -55 12 -62 17 -8 6 -55 13 -105 15
-55 3 -100 10 -112 18 -11 8 -32 14 -47 14 -16 0 -28 4 -28 10 0 5 -18 14 -40
20 -21 6 -42 15 -45 19 -3 5 -40 12 -83 16 -42 4 -111 18 -152 30 -95 30 -304
47 -415 36 -44 -5 -83 -7 -87 -4 -5 2 -8 13 -8 24 0 25 -24 24 -75 -4z m849
-843 c39 -9 89 -22 111 -30 22 -7 60 -16 85 -20 25 -4 62 -15 82 -25 21 -11
45 -19 55 -19 28 0 136 -54 216 -108 40 -26 97 -61 127 -78 30 -16 64 -37 75
-48 11 -10 35 -30 53 -44 57 -44 174 -170 199 -214 14 -24 28 -45 32 -48 31
-22 69 -131 91 -265 7 -38 23 -91 36 -117 13 -26 24 -61 24 -76 0 -16 11 -46
25 -66 34 -49 55 -129 71 -271 8 -66 22 -181 31 -255 23 -188 27 -374 9 -425
-7 -22 -19 -67 -26 -100 -6 -33 -14 -71 -17 -85 -3 -14 -7 -43 -8 -65 -1 -22
-8 -69 -14 -105 -7 -36 -14 -96 -16 -134 -2 -39 -8 -79 -13 -90 -26 -58 -49
-144 -42 -156 5 -8 0 -24 -12 -41 -18 -24 -19 -32 -9 -58 11 -24 10 -33 -4
-55 -9 -14 -15 -38 -14 -53 5 -49 -37 -156 -58 -148 -18 6 -27 -14 -13 -30 10
-12 9 -20 -4 -40 -19 -28 -20 -29 -47 -14 -18 9 -19 12 -6 27 11 13 12 24 5
42 l-9 25 -17 -22 c-9 -11 -26 -23 -37 -25 -15 -3 -20 -11 -18 -33 2 -45 -6
-75 -21 -75 -7 0 -18 -11 -24 -24 -6 -14 -20 -26 -32 -28 -12 -2 -29 -16 -38
-33 -9 -16 -21 -33 -27 -37 -17 -13 -93 -9 -98 5 -3 6 -6 -5 -6 -25 -1 -33 -5
-39 -36 -52 -43 -18 -58 -13 -75 22 l-12 27 -17 -22 c-16 -20 -20 -20 -34 -6
-8 9 -22 13 -30 10 -20 -7 -33 -65 -18 -80 19 -19 12 -42 -20 -66 -31 -23 -33
-38 -15 -82 5 -11 -4 -20 -29 -32 -20 -9 -42 -17 -50 -17 -8 0 -19 -9 -25 -20
-16 -30 -59 -70 -75 -70 -8 0 -21 -10 -29 -22 l-16 -22 0 26 c0 29 -16 40 -41
27 -12 -6 -18 -3 -22 11 -3 11 -13 23 -24 26 -10 3 -30 12 -44 20 -45 23 -169
4 -169 -27 0 -6 -10 -3 -22 5 -29 20 -47 20 -70 -1 -11 -9 -18 -11 -18 -5 0
16 -50 15 -51 0 0 -10 -2 -10 -6 0 -9 23 -46 12 -80 -24 -31 -33 -37 -36 -59
-25 -23 10 -26 9 -36 -19 -8 -26 -13 -29 -25 -18 -11 9 -19 9 -33 0 -16 -10
-21 -8 -32 7 -7 10 -22 20 -33 22 -10 2 -22 15 -25 29 -4 17 -12 24 -26 23
-19 -2 -103 21 -136 38 -10 5 -31 9 -48 9 -16 0 -30 5 -30 10 0 6 -13 18 -28
28 -29 17 -31 33 -7 62 15 18 18 77 4 85 -5 4 -9 15 -9 27 0 11 -6 32 -14 46
-7 15 -18 41 -23 57 -6 17 -13 37 -17 45 -4 9 0 24 8 35 15 20 15 20 31 -2 9
-13 25 -23 36 -23 16 0 19 -5 14 -20 -5 -14 -1 -22 12 -26 10 -3 25 -10 33
-15 8 -5 29 -16 47 -24 18 -8 37 -24 43 -35 6 -11 26 -22 48 -26 54 -10 118
-40 125 -58 6 -16 74 -50 117 -59 14 -3 45 -13 70 -23 57 -22 141 -22 174 0
14 9 36 16 48 16 13 0 42 18 67 40 24 22 54 40 66 40 12 0 30 9 40 20 10 11
28 20 41 20 13 0 28 8 33 19 6 10 26 22 44 25 23 4 44 19 65 45 18 22 40 42
49 45 10 3 26 19 35 36 9 16 24 30 33 30 8 0 15 5 15 12 0 6 15 24 32 40 25
22 38 27 58 22 32 -9 49 -8 83 5 24 10 27 15 27 60 0 27 4 61 9 74 7 17 5 31
-5 48 -7 13 -20 38 -29 56 -25 54 -79 100 -122 106 -21 2 -64 12 -96 21 -32 9
-76 16 -97 16 -36 0 -40 -3 -40 -25 0 -18 -5 -25 -20 -25 -23 0 -25 17 -5 44
20 26 19 29 -12 60 -21 22 -33 26 -57 21 -65 -13 -66 -14 -66 -59 0 -55 27
-91 75 -99 19 -3 42 -13 51 -21 8 -9 26 -16 40 -16 14 0 27 -7 30 -15 8 -19
30 -19 37 -1 10 25 44 6 55 -30 9 -30 8 -34 -8 -34 -10 0 -20 7 -24 15 -4 11
-16 13 -49 9 -44 -6 -156 13 -250 43 -52 16 -75 14 -150 -12 -44 -16 -50 -16
-90 -1 -24 9 -60 16 -81 16 -42 0 -188 -26 -221 -39 -49 -20 -123 -40 -155
-43 -33 -3 -35 -1 -38 29 -4 35 22 57 61 51 16 -2 23 3 25 18 4 26 42 45 64
33 11 -6 21 -4 32 6 8 8 21 15 29 15 20 0 40 26 32 41 -13 20 18 29 37 12 17
-15 20 -15 38 2 13 12 20 29 18 44 -4 33 -26 38 -34 8 -5 -24 -7 -24 -25 -9
-23 20 -24 32 -5 32 24 0 27 16 8 40 -17 21 -19 21 -34 6 -9 -9 -29 -16 -43
-16 -17 0 -39 -12 -60 -32 -95 -94 -104 -101 -117 -91 -20 17 -69 10 -111 -15
-21 -12 -57 -26 -80 -32 -23 -5 -48 -18 -56 -29 -7 -12 -20 -21 -27 -21 -27 0
-47 -45 -71 -162 -3 -18 2 -39 15 -60 11 -18 28 -60 38 -93 10 -33 21 -64 25
-69 4 -5 1 -15 -7 -23 -10 -10 -11 -20 -5 -31 6 -10 6 -23 0 -34 -6 -11 -4
-21 5 -31 13 -12 10 -18 -24 -39 l-38 -26 -36 37 c-20 20 -36 44 -36 52 0 41
-55 53 -70 14 -12 -31 -18 -31 -30 -1 -13 35 -59 24 -67 -16 -5 -25 -8 -27
-15 -14 -5 9 -15 16 -23 16 -8 0 -22 12 -32 26 -13 21 -14 30 -4 45 14 23 6
40 -14 32 -25 -9 -65 6 -65 25 0 9 -7 26 -15 36 -8 11 -15 27 -15 36 0 9 -11
27 -25 40 -14 13 -25 33 -25 45 0 12 -9 30 -19 39 -11 10 -33 61 -49 115 -61
197 -64 209 -52 231 7 13 8 26 2 33 -13 18 -33 119 -56 282 -7 50 -15 97 -19
105 -3 8 -8 40 -10 70 -2 30 -10 96 -17 145 -9 70 -10 136 -1 300 6 116 14
262 17 325 6 121 19 221 34 249 5 9 15 34 23 56 8 22 31 65 51 95 36 55 52
105 44 138 -3 10 1 23 9 30 8 8 13 35 13 68 0 89 25 166 105 328 62 124 106
183 165 223 42 29 130 73 146 73 3 0 15 11 25 24 17 22 135 86 157 86 5 0 15
7 22 15 28 34 154 77 258 90 18 2 40 9 49 17 15 12 93 37 121 38 6 0 12 -7 12
-15 0 -29 30 -29 60 0 29 28 58 36 190 54 30 4 64 12 75 19 28 16 75 15 159
-4z m41 -3191 c16 -16 16 -18 -6 -36 -24 -19 -24 -19 81 -12 l106 7 12 -27 c8
-18 18 -25 30 -21 9 2 36 8 60 11 38 6 42 5 42 -13 0 -13 -22 -38 -57 -67
-122 -97 -166 -124 -212 -130 -25 -4 -59 -12 -76 -18 -35 -14 -309 -12 -425 2
-121 16 -194 32 -213 49 -16 14 -16 17 -1 33 15 16 13 21 -21 66 -24 32 -32
49 -23 51 7 2 27 10 45 18 17 8 42 14 55 14 29 0 68 26 68 46 0 23 38 17 46
-8 6 -20 7 -21 17 -2 6 10 15 22 20 25 12 8 46 0 73 -18 14 -9 50 -13 110 -12
79 2 91 4 111 25 17 18 28 22 51 18 17 -3 38 -1 49 5 26 15 39 14 58 -6z"/>
<path d="M5920 6850 c-14 -5 -44 -8 -67 -9 -81 -2 -270 -62 -315 -99 -27 -22
-23 -68 7 -88 13 -8 29 -13 34 -9 6 3 25 -1 43 -9 37 -17 88 -24 103 -14 19
12 187 36 293 43 56 4 102 11 102 16 0 5 14 9 30 9 17 0 30 -5 30 -10 0 -6 8
-14 18 -17 9 -4 32 -17 51 -30 19 -13 45 -23 58 -23 13 0 42 -9 64 -20 22 -12
44 -18 49 -15 15 9 -7 43 -32 50 -13 4 -42 15 -65 26 -24 10 -47 19 -53 19 -5
0 -10 9 -10 19 0 11 -9 23 -21 26 -23 8 -40 44 -33 72 3 11 -1 24 -8 30 -35
27 -223 49 -278 33z"/>
<path d="M4192 6734 c-33 -28 -35 -34 -36 -90 -1 -54 -3 -59 -24 -62 -18 -3
-21 -6 -12 -17 19 -22 -24 -40 -60 -25 -25 10 -33 9 -60 -10 -36 -25 -50 -49
-50 -84 0 -30 2 -31 41 -10 17 8 58 20 92 25 72 12 100 28 119 66 8 17 27 33
48 40 47 16 225 15 335 -2 83 -13 263 -14 283 -1 5 3 9 24 9 46 0 35 -5 46
-38 74 -70 60 -151 73 -473 79 l-138 2 -36 -31z"/>
<path d="M5706 6385 c-3 -8 -11 -15 -18 -15 -25 -1 -59 -40 -65 -75 -3 -19 -9
-35 -14 -35 -5 0 -16 -14 -25 -31 -22 -43 -9 -49 91 -43 106 7 118 12 76 30
l-34 14 34 26 34 25 17 -38 c9 -21 17 -43 17 -50 2 -21 16 -22 116 -7 107 16
280 20 363 9 35 -5 52 -3 52 4 0 6 -21 32 -47 58 -26 27 -46 54 -44 62 1 7 -2
10 -9 6 -7 -4 -26 0 -43 8 -98 47 -114 50 -255 50 -108 -1 -145 -4 -170 -17
-17 -9 -41 -16 -53 -16 -21 0 -21 1 -6 18 21 23 21 32 3 32 -8 0 -16 -7 -20
-15z"/>
<path d="M4391 6291 c-32 -9 -49 -16 -119 -49 -32 -15 -59 -9 -32 8 10 6 12
12 5 19 -26 26 -165 -149 -165 -208 0 -20 3 -22 32 -16 18 4 49 16 70 27 33
18 48 19 106 12 37 -5 74 -7 82 -6 8 1 60 4 115 7 118 7 140 18 149 74 5 34
10 41 29 41 30 -1 54 -21 59 -50 3 -24 6 -25 77 -25 47 0 76 4 78 12 2 6 -15
30 -39 53 -65 64 -73 70 -95 70 -11 0 -37 7 -57 15 -44 18 -244 29 -295 16z"/>
<path d="M5395 5334 c-38 -19 -74 -39 -78 -43 -12 -11 -180 14 -218 33 -21 10
-58 16 -109 16 -74 0 -77 -1 -110 -35 -19 -20 -44 -35 -57 -35 -17 0 -23 -6
-23 -23 0 -43 44 -55 280 -71 30 -2 95 -9 143 -15 72 -8 93 -8 110 3 12 8 46
21 75 30 28 8 62 22 74 30 25 18 68 20 116 7 20 -6 32 -6 32 0 0 5 6 9 14 9
12 0 46 40 46 55 0 3 -8 5 -17 5 -10 0 -38 16 -62 35 -61 49 -119 49 -216 -1z"/>
<path d="M5238 5067 c-13 -12 -33 -37 -43 -55 -11 -18 -23 -32 -27 -32 -13 0
-9 -20 5 -20 6 0 23 -9 37 -20 16 -12 41 -20 67 -20 34 0 46 5 59 25 9 14 23
25 30 25 8 0 14 9 14 20 0 24 -9 26 -25 4 -10 -14 -16 -10 -43 32 -18 26 -32
51 -32 56 0 14 -16 9 -42 -15z"/>
<path d="M4436 2975 c-19 -15 -27 -47 -42 -175 -3 -25 -11 -50 -17 -55 -16
-14 -48 -62 -72 -108 -11 -21 -32 -52 -47 -68 -16 -17 -28 -32 -28 -35 0 -2
-20 -24 -45 -47 -25 -24 -45 -47 -45 -51 0 -6 38 -3 98 10 15 3 29 17 38 39
16 39 49 65 97 74 26 6 33 12 35 36 2 16 10 38 18 49 16 24 19 62 4 71 -18 11
-11 45 8 45 32 0 60 83 54 163 -5 72 -16 82 -56 52z"/>
</g>
</svg>
